{
  "extensionsUsed": [
    "KHR_materials_emissive_strength",
    "KHR_materials_specular"
  ],
  "accessors": [
    {
      "bufferView": 0,
      "byteOffset": 0,
      "componentType": 5123,
      "count": 768,
      "type": "SCALAR",
      "max": [259],
      "min": [0]
    },
    {
      "bufferView": 1,
      "byteOffset": 0,
      "componentType": 5126,
      "count": 260,
      "type": "VEC3",
      "max": [0.9759795665740967, 0.06482218205928802, 0.9759795665740967],
      "min": [-0.9759795665740967, -0.06482218205928802, -0.9759795665740967],
      "name": "POSITION"
    },
    {
      "bufferView": 1,
      "byteOffset": 12,
      "componentType": 5126,
      "count": 260,
      "type": "VEC3",
      "max": [0.8468822240829468, 1.0000044107437134, 0],
      "min": [0, 0, -0.5317887663841248],
      "name": "NORMAL"
    },
    {
      "bufferView": 1,
      "byteOffset": 24,
      "componentType": 5126,
      "count": 260,
      "type": "VEC2",
      "max": [0.7361994981765747, 1.7993780374526978],
      "min": [0.2728710472583771, 0.6964125633239746],
      "name": "TEXCOORD_0"
    },
    {
      "bufferView": 0,
      "byteOffset": 1536,
      "componentType": 5123,
      "count": 19992,
      "type": "SCALAR",
      "max": [7437],
      "min": [0]
    },
    {
      "bufferView": 2,
      "byteOffset": 0,
      "componentType": 5126,
      "count": 7438,
      "type": "VEC3",
      "max": [1.0164858102798462, 0.06482218950986862, 1.0164858102798462],
      "min": [-1.0164858102798462, -0.06482218950986862, -1.0164858102798462],
      "name": "POSITION"
    },
    {
      "bufferView": 2,
      "byteOffset": 12,
      "componentType": 5126,
      "count": 7438,
      "type": "VEC3",
      "max": [1.0000044107437134, 1.0000044107437134, 1.0000044107437134],
      "min": [-1.0000044107437134, -1.0000044107437134, -1.0000044107437134],
      "name": "NORMAL"
    },
    {
      "bufferView": 2,
      "byteOffset": 24,
      "componentType": 5126,
      "count": 7438,
      "type": "VEC2",
      "max": [0.8288043737411499, 1.6116842031478882],
      "min": [-0.9955552816390991, 0.4507361650466919],
      "name": "TEXCOORD_0"
    },
    {
      "bufferView": 0,
      "byteOffset": 41520,
      "componentType": 5123,
      "count": 768,
      "type": "SCALAR",
      "max": [259],
      "min": [0]
    },
    {
      "bufferView": 3,
      "byteOffset": 0,
      "componentType": 5126,
      "count": 260,
      "type": "VEC3",
      "max": [0.9928122162818909, 0.06482218205928802, 0.9759795665740967],
      "min": [-0.9759795665740967, -0.06482218205928802, -0.9759795665740967],
      "name": "POSITION"
    },
    {
      "bufferView": 3,
      "byteOffset": 12,
      "componentType": 5126,
      "count": 260,
      "type": "VEC3",
      "max": [0.9920091032981873, 0, 0.12620116770267487],
      "min": [0, -1.0000044107437134, 0],
      "name": "NORMAL"
    },
    {
      "bufferView": 3,
      "byteOffset": 24,
      "componentType": 5126,
      "count": 260,
      "type": "VEC2",
      "max": [0.8866835832595825, 1.8569302558898926],
      "min": [0.11173011362552643, 0.6964125633239746],
      "name": "TEXCOORD_0"
    }
  ],
  "asset": { "generator": "Aspose.3D 24.6.0", "version": "2.0" },
  "buffers": [
    {
      "uri": "data:application/octet-stream;base64,",
      "byteLength": 297728
    }
  ],
  "bufferViews": [
    { "buffer": 0, "byteOffset": 0, "byteLength": 43056, "target": 34963 },
    {
      "buffer": 0,
      "byteOffset": 43060,
      "byteLength": 8320,
      "byteStride": 32,
      "target": 34962
    },
    {
      "buffer": 0,
      "byteOffset": 51384,
      "byteLength": 238016,
      "byteStride": 32,
      "target": 34962
    },
    {
      "buffer": 0,
      "byteOffset": 289404,
      "byteLength": 8320,
      "byteStride": 32,
      "target": 34962
    }
  ],
  "images": [
    {
      "uri": "cointTexture.png"
    }
  ],
  "materials": [
    {
      "name": "Material.003",
      "pbrMetallicRoughness": {
        "baseColorFactor": [1, 1, 1, 1],
        "baseColorTexture": { "index": 0, "texCoord": 0 },
        "metallicFactor": 1,
        "roughnessFactor": 0.5681818127632141
      },
      "emissiveFactor": [
        0.1999988555908203, 0.1999988555908203, 0.1999988555908203
      ],
      "alphaMode": "OPAQUE",
      "doubleSided": true
    },
    {
      "name": "Material.002",
      "extensions": {
        "KHR_materials_emissive_strength": { "emissiveStrength": 100 },
        "KHR_materials_specular": {
          "specularColorFactor": [
            1.1090909242630005, 1.1090909242630005, 1.1090909242630005
          ]
        }
      },
      "pbrMetallicRoughness": {
        "baseColorFactor": [
          0.800000011920929, 0.800000011920929, 0.800000011920929, 1
        ],
        "metallicFactor": 1,
        "roughnessFactor": 0.5
      },
      "emissiveFactor": [0, 0.0028847018256783485, 1],
      "alphaMode": "OPAQUE",
      "doubleSided": true
    },
    {
      "name": "Material",
      "pbrMetallicRoughness": {
        "baseColorFactor": [
          0.642752468585968, 0.6601945757865906, 0.6101274490356445, 1
        ],
        "metallicFactor": 0.7670454978942871,
        "roughnessFactor": 1
      },
      "emissiveFactor": [0, 0, 0],
      "alphaMode": "OPAQUE",
      "doubleSided": true
    }
  ],
  "meshes": [
    {
      "primitives": [
        {
          "attributes": { "POSITION": 1, "NORMAL": 2, "TEXCOORD_0": 3 },
          "indices": 0,
          "material": 0,
          "mode": 4
        },
        {
          "attributes": { "POSITION": 5, "NORMAL": 6, "TEXCOORD_0": 7 },
          "indices": 4,
          "material": 1,
          "mode": 4
        },
        {
          "attributes": { "POSITION": 9, "NORMAL": 10, "TEXCOORD_0": 11 },
          "indices": 8,
          "material": 2,
          "mode": 4
        }
      ]
    }
  ],
  "nodes": [{ "mesh": 0, "name": "Cylinder" }],
  "samplers": [
    { "magFilter": 9729, "minFilter": 9987, "wrapS": 10497, "wrapT": 10497 }
  ],
  "scene": 0,
  "scenes": [{ "nodes": [0] }],
  "textures": [{ "sampler": 0, "source": 0, "name": "" }]
}
