<svg id="visual" viewBox="0 0 900 600" width="900" height="600" xmlns="http://www.w3.org/2000/svg" xmlns:xlink="http://www.w3.org/1999/xlink" version="1.1"><path d="M0 501L21.5 505.7C43 510.3 86 519.7 128.8 521.3C171.7 523 214.3 517 257.2 516.5C300 516 343 521 385.8 523.7C428.7 526.3 471.3 526.7 514.2 525.5C557 524.3 600 521.7 642.8 520C685.7 518.3 728.3 517.7 771.2 515.8C814 514 857 511 878.5 509.5L900 508L900 601L878.5 601C857 601 814 601 771.2 601C728.3 601 685.7 601 642.8 601C600 601 557 601 514.2 601C471.3 601 428.7 601 385.8 601C343 601 300 601 257.2 601C214.3 601 171.7 601 128.8 601C86 601 43 601 21.5 601L0 601Z" fill="#001146"></path><path d="M0 517L21.5 519.7C43 522.3 86 527.7 128.8 528C171.7 528.3 214.3 523.7 257.2 526.3C300 529 343 539 385.8 543.2C428.7 547.3 471.3 545.7 514.2 543.2C557 540.7 600 537.3 642.8 533.2C685.7 529 728.3 524 771.2 524.7C814 525.3 857 531.7 878.5 534.8L900 538L900 601L878.5 601C857 601 814 601 771.2 601C728.3 601 685.7 601 642.8 601C600 601 557 601 514.2 601C471.3 601 428.7 601 385.8 601C343 601 300 601 257.2 601C214.3 601 171.7 601 128.8 601C86 601 43 601 21.5 601L0 601Z" fill="#002b63"></path><path d="M0 552L21.5 553.3C43 554.7 86 557.3 128.8 555.5C171.7 553.7 214.3 547.3 257.2 545.3C300 543.3 343 545.7 385.8 548.7C428.7 551.7 471.3 555.3 514.2 555.2C557 555 600 551 642.8 551.3C685.7 551.7 728.3 556.3 771.2 558.8C814 561.3 857 561.7 878.5 561.8L900 562L900 601L878.5 601C857 601 814 601 771.2 601C728.3 601 685.7 601 642.8 601C600 601 557 601 514.2 601C471.3 601 428.7 601 385.8 601C343 601 300 601 257.2 601C214.3 601 171.7 601 128.8 601C86 601 43 601 21.5 601L0 601Z" fill="#004680"></path><path d="M0 557L21.5 556.3C43 555.7 86 554.3 128.8 555C171.7 555.7 214.3 558.3 257.2 561.2C300 564 343 567 385.8 565.7C428.7 564.3 471.3 558.7 514.2 558.2C557 557.7 600 562.3 642.8 562.7C685.7 563 728.3 559 771.2 558.8C814 558.7 857 562.3 878.5 564.2L900 566L900 601L878.5 601C857 601 814 601 771.2 601C728.3 601 685.7 601 642.8 601C600 601 557 601 514.2 601C471.3 601 428.7 601 385.8 601C343 601 300 601 257.2 601C214.3 601 171.7 601 128.8 601C86 601 43 601 21.5 601L0 601Z" fill="#04639c"></path><path d="M0 578L21.5 576.7C43 575.3 86 572.7 128.8 571.7C171.7 570.7 214.3 571.3 257.2 573C300 574.7 343 577.3 385.8 579C428.7 580.7 471.3 581.3 514.2 579.7C557 578 600 574 642.8 572.7C685.7 571.3 728.3 572.7 771.2 572.8C814 573 857 572 878.5 571.5L900 571L900 601L878.5 601C857 601 814 601 771.2 601C728.3 601 685.7 601 642.8 601C600 601 557 601 514.2 601C471.3 601 428.7 601 385.8 601C343 601 300 601 257.2 601C214.3 601 171.7 601 128.8 601C86 601 43 601 21.5 601L0 601Z" fill="#1881b6"></path></svg>