<svg id="visual" viewBox="0 0 900 600" width="900" height="600" xmlns="http://www.w3.org/2000/svg" xmlns:xlink="http://www.w3.org/1999/xlink" version="1.1"><path d="M0 515L21.5 515C43 515 86 515 128.8 517C171.7 519 214.3 523 257.2 522.8C300 522.7 343 518.3 385.8 519.7C428.7 521 471.3 528 514.2 530.8C557 533.7 600 532.3 642.8 531C685.7 529.7 728.3 528.3 771.2 527.8C814 527.3 857 527.7 878.5 527.8L900 528L900 601L878.5 601C857 601 814 601 771.2 601C728.3 601 685.7 601 642.8 601C600 601 557 601 514.2 601C471.3 601 428.7 601 385.8 601C343 601 300 601 257.2 601C214.3 601 171.7 601 128.8 601C86 601 43 601 21.5 601L0 601Z" fill="#001146"></path><path d="M0 527L21.5 527C43 527 86 527 128.8 525.5C171.7 524 214.3 521 257.2 524.3C300 527.7 343 537.3 385.8 542C428.7 546.7 471.3 546.3 514.2 544C557 541.7 600 537.3 642.8 535.5C685.7 533.7 728.3 534.3 771.2 534C814 533.7 857 532.3 878.5 531.7L900 531L900 601L878.5 601C857 601 814 601 771.2 601C728.3 601 685.7 601 642.8 601C600 601 557 601 514.2 601C471.3 601 428.7 601 385.8 601C343 601 300 601 257.2 601C214.3 601 171.7 601 128.8 601C86 601 43 601 21.5 601L0 601Z" fill="#002b63"></path><path d="M0 546L21.5 546.7C43 547.3 86 548.7 128.8 550.8C171.7 553 214.3 556 257.2 557.5C300 559 343 559 385.8 557.8C428.7 556.7 471.3 554.3 514.2 554C557 553.7 600 555.3 642.8 554C685.7 552.7 728.3 548.3 771.2 545.2C814 542 857 540 878.5 539L900 538L900 601L878.5 601C857 601 814 601 771.2 601C728.3 601 685.7 601 642.8 601C600 601 557 601 514.2 601C471.3 601 428.7 601 385.8 601C343 601 300 601 257.2 601C214.3 601 171.7 601 128.8 601C86 601 43 601 21.5 601L0 601Z" fill="#004680"></path><path d="M0 561L21.5 561.7C43 562.3 86 563.7 128.8 562.5C171.7 561.3 214.3 557.7 257.2 556C300 554.3 343 554.7 385.8 555.7C428.7 556.7 471.3 558.3 514.2 558.3C557 558.3 600 556.7 642.8 555.5C685.7 554.3 728.3 553.7 771.2 554.5C814 555.3 857 557.7 878.5 558.8L900 560L900 601L878.5 601C857 601 814 601 771.2 601C728.3 601 685.7 601 642.8 601C600 601 557 601 514.2 601C471.3 601 428.7 601 385.8 601C343 601 300 601 257.2 601C214.3 601 171.7 601 128.8 601C86 601 43 601 21.5 601L0 601Z" fill="#04639c"></path><path d="M0 589L21.5 588.5C43 588 86 587 128.8 585.3C171.7 583.7 214.3 581.3 257.2 581.2C300 581 343 583 385.8 581.8C428.7 580.7 471.3 576.3 514.2 575.5C557 574.7 600 577.3 642.8 578.3C685.7 579.3 728.3 578.7 771.2 578C814 577.3 857 576.7 878.5 576.3L900 576L900 601L878.5 601C857 601 814 601 771.2 601C728.3 601 685.7 601 642.8 601C600 601 557 601 514.2 601C471.3 601 428.7 601 385.8 601C343 601 300 601 257.2 601C214.3 601 171.7 601 128.8 601C86 601 43 601 21.5 601L0 601Z" fill="#1881b6"></path></svg>