<svg id="visual" viewBox="0 0 900 600" width="900" height="600" xmlns="http://www.w3.org/2000/svg" xmlns:xlink="http://www.w3.org/1999/xlink" version="1.1"><path d="M0 460L21.5 460.7C43 461.3 86 462.7 128.8 470C171.7 477.3 214.3 490.7 257.2 494C300 497.3 343 490.7 385.8 488.5C428.7 486.3 471.3 488.7 514.2 486.8C557 485 600 479 642.8 477.5C685.7 476 728.3 479 771.2 480.2C814 481.3 857 480.7 878.5 480.3L900 480L900 601L878.5 601C857 601 814 601 771.2 601C728.3 601 685.7 601 642.8 601C600 601 557 601 514.2 601C471.3 601 428.7 601 385.8 601C343 601 300 601 257.2 601C214.3 601 171.7 601 128.8 601C86 601 43 601 21.5 601L0 601Z" fill="#001146"></path><path d="M0 524L21.5 519.2C43 514.3 86 504.7 128.8 498.5C171.7 492.3 214.3 489.7 257.2 487.3C300 485 343 483 385.8 484.2C428.7 485.3 471.3 489.7 514.2 494.5C557 499.3 600 504.7 642.8 505.2C685.7 505.7 728.3 501.3 771.2 500.5C814 499.7 857 502.3 878.5 503.7L900 505L900 601L878.5 601C857 601 814 601 771.2 601C728.3 601 685.7 601 642.8 601C600 601 557 601 514.2 601C471.3 601 428.7 601 385.8 601C343 601 300 601 257.2 601C214.3 601 171.7 601 128.8 601C86 601 43 601 21.5 601L0 601Z" fill="#002b63"></path><path d="M0 503L21.5 509.7C43 516.3 86 529.7 128.8 531.8C171.7 534 214.3 525 257.2 519.8C300 514.7 343 513.3 385.8 514.2C428.7 515 471.3 518 514.2 518.8C557 519.7 600 518.3 642.8 518.5C685.7 518.7 728.3 520.3 771.2 521.5C814 522.7 857 523.3 878.5 523.7L900 524L900 601L878.5 601C857 601 814 601 771.2 601C728.3 601 685.7 601 642.8 601C600 601 557 601 514.2 601C471.3 601 428.7 601 385.8 601C343 601 300 601 257.2 601C214.3 601 171.7 601 128.8 601C86 601 43 601 21.5 601L0 601Z" fill="#004680"></path><path d="M0 543L21.5 546.3C43 549.7 86 556.3 128.8 556.3C171.7 556.3 214.3 549.7 257.2 547.8C300 546 343 549 385.8 547.8C428.7 546.7 471.3 541.3 514.2 540.8C557 540.3 600 544.7 642.8 544.2C685.7 543.7 728.3 538.3 771.2 537.3C814 536.3 857 539.7 878.5 541.3L900 543L900 601L878.5 601C857 601 814 601 771.2 601C728.3 601 685.7 601 642.8 601C600 601 557 601 514.2 601C471.3 601 428.7 601 385.8 601C343 601 300 601 257.2 601C214.3 601 171.7 601 128.8 601C86 601 43 601 21.5 601L0 601Z" fill="#04639c"></path><path d="M0 577L21.5 573.5C43 570 86 563 128.8 563.7C171.7 564.3 214.3 572.7 257.2 576C300 579.3 343 577.7 385.8 575.2C428.7 572.7 471.3 569.3 514.2 568.8C557 568.3 600 570.7 642.8 572.3C685.7 574 728.3 575 771.2 575.8C814 576.7 857 577.3 878.5 577.7L900 578L900 601L878.5 601C857 601 814 601 771.2 601C728.3 601 685.7 601 642.8 601C600 601 557 601 514.2 601C471.3 601 428.7 601 385.8 601C343 601 300 601 257.2 601C214.3 601 171.7 601 128.8 601C86 601 43 601 21.5 601L0 601Z" fill="#1881b6"></path></svg>