<svg id="visual" viewBox="0 0 900 600" width="900" height="600" xmlns="http://www.w3.org/2000/svg" xmlns:xlink="http://www.w3.org/1999/xlink" version="1.1"><path d="M0 473L21.5 476.5C43 480 86 487 128.8 483.5C171.7 480 214.3 466 257.2 463.7C300 461.3 343 470.7 385.8 475.7C428.7 480.7 471.3 481.3 514.2 483C557 484.7 600 487.3 642.8 491.7C685.7 496 728.3 502 771.2 500.3C814 498.7 857 489.3 878.5 484.7L900 480L900 601L878.5 601C857 601 814 601 771.2 601C728.3 601 685.7 601 642.8 601C600 601 557 601 514.2 601C471.3 601 428.7 601 385.8 601C343 601 300 601 257.2 601C214.3 601 171.7 601 128.8 601C86 601 43 601 21.5 601L0 601Z" fill="#001146"></path><path d="M0 479L21.5 484.7C43 490.3 86 501.7 128.8 502.2C171.7 502.7 214.3 492.3 257.2 486.3C300 480.3 343 478.7 385.8 478.2C428.7 477.7 471.3 478.3 514.2 480.2C557 482 600 485 642.8 485C685.7 485 728.3 482 771.2 488.5C814 495 857 511 878.5 519L900 527L900 601L878.5 601C857 601 814 601 771.2 601C728.3 601 685.7 601 642.8 601C600 601 557 601 514.2 601C471.3 601 428.7 601 385.8 601C343 601 300 601 257.2 601C214.3 601 171.7 601 128.8 601C86 601 43 601 21.5 601L0 601Z" fill="#002b63"></path><path d="M0 532L21.5 530.7C43 529.3 86 526.7 128.8 521.7C171.7 516.7 214.3 509.3 257.2 511.8C300 514.3 343 526.7 385.8 533.3C428.7 540 471.3 541 514.2 535.8C557 530.7 600 519.3 642.8 518.2C685.7 517 728.3 526 771.2 531.3C814 536.7 857 538.3 878.5 539.2L900 540L900 601L878.5 601C857 601 814 601 771.2 601C728.3 601 685.7 601 642.8 601C600 601 557 601 514.2 601C471.3 601 428.7 601 385.8 601C343 601 300 601 257.2 601C214.3 601 171.7 601 128.8 601C86 601 43 601 21.5 601L0 601Z" fill="#004680"></path><path d="M0 562L21.5 557C43 552 86 542 128.8 539.2C171.7 536.3 214.3 540.7 257.2 543.3C300 546 343 547 385.8 546.7C428.7 546.3 471.3 544.7 514.2 541.8C557 539 600 535 642.8 534.2C685.7 533.3 728.3 535.7 771.2 536.3C814 537 857 536 878.5 535.5L900 535L900 601L878.5 601C857 601 814 601 771.2 601C728.3 601 685.7 601 642.8 601C600 601 557 601 514.2 601C471.3 601 428.7 601 385.8 601C343 601 300 601 257.2 601C214.3 601 171.7 601 128.8 601C86 601 43 601 21.5 601L0 601Z" fill="#04639c"></path><path d="M0 568L21.5 566.3C43 564.7 86 561.3 128.8 561.7C171.7 562 214.3 566 257.2 567C300 568 343 566 385.8 567.5C428.7 569 471.3 574 514.2 573.8C557 573.7 600 568.3 642.8 567.5C685.7 566.7 728.3 570.3 771.2 570.7C814 571 857 568 878.5 566.5L900 565L900 601L878.5 601C857 601 814 601 771.2 601C728.3 601 685.7 601 642.8 601C600 601 557 601 514.2 601C471.3 601 428.7 601 385.8 601C343 601 300 601 257.2 601C214.3 601 171.7 601 128.8 601C86 601 43 601 21.5 601L0 601Z" fill="#1881b6"></path></svg>